<?xml version="1.0" encoding="UTF-8"?> <svg xmlns="http://www.w3.org/2000/svg" width="82" height="82" viewBox="0 0 83 82" fill="none"><g><path fill-rule="evenodd" clip-rule="evenodd" d="M41 82C63.6437 82 82 63.6437 82 41C82 18.3563 63.6437 0 41 0C18.3563 0 0 18.3563 0 41C0 63.6437 18.3563 82 41 82Z" fill="#FCF0E6"></path></g><g transform="translate(27, 24)"><path d="M29.4195 9.075L25.674 5.3295C25.7895 4.6365 25.971 3.993 26.202 3.432C26.334 3.135 26.4 2.8215 26.4 2.475C26.4 1.1055 25.2945 0 23.925 0C21.219 0 18.8265 1.3035 17.325 3.3H9.075C4.059 3.3 0 7.359 0 12.375C0 17.391 4.125 31.35 4.125 31.35H13.2V28.05H16.5V31.35H25.575L28.347 22.1265L33 20.5755V9.075H29.4195ZM18.15 11.55H9.9V8.25H18.15V11.55ZM23.1 14.85C22.1925 14.85 21.45 14.1075 21.45 13.2C21.45 12.2925 22.1925 11.55 23.1 11.55C24.0075 11.55 24.75 12.2925 24.75 13.2C24.75 14.1075 24.0075 14.85 23.1 14.85Z" fill="#996E2C"></path></g></svg> 