<?xml version="1.0" encoding="UTF-8"?> <svg xmlns="http://www.w3.org/2000/svg" width="82" height="82" viewBox="0 0 83 82" fill="none"><g><path fill-rule="evenodd" clip-rule="evenodd" d="M41 82C63.6437 82 82 63.6437 82 41C82 18.3563 63.6437 0 41 0C18.3563 0 0 18.3563 0 41C0 63.6437 18.3563 82 41 82Z" fill="#E6F5F1"></path></g><g transform="translate(27, 24)"><path d="M15.8659 13.9024C17.0805 13.9024 18.061 12.922 18.061 11.7073C18.061 10.4927 17.0805 9.5122 15.8659 9.5122C14.6512 9.5122 13.6707 10.4927 13.6707 11.7073C13.6707 12.922 14.6512 13.9024 15.8659 13.9024ZM5.62195 5.85366C7.24634 5.85366 8.54878 4.55122 8.54878 2.92683C8.54878 1.30244 7.24634 0 5.62195 0C3.99756 0 2.69512 1.30244 2.69512 2.92683C2.69512 4.55122 3.99756 5.85366 5.62195 5.85366ZM8.54878 29.2683V19.0244H10.7439V10.2439C10.7439 8.63415 9.42683 7.31707 7.81707 7.31707H3.42683C1.81707 7.31707 0.5 8.63415 0.5 10.2439V19.0244H2.69512V29.2683H8.54878ZM18.061 29.2683V23.4146H19.5244V17.561C19.5244 16.361 18.5293 15.3659 17.3293 15.3659H14.4024C13.2024 15.3659 12.2073 16.361 12.2073 17.561V23.4146H13.6707V29.2683H18.061Z" fill="#358271"></path></g><g transform="translate(46, 24)"><path fill-rule="evenodd" clip-rule="evenodd" d="M8.54878 2.92683C8.54878 4.55122 7.24634 5.85366 5.62195 5.85366C3.99756 5.85366 2.69512 4.55122 2.69512 2.92683C2.69512 1.30244 3.99756 0 5.62195 0C7.24634 0 8.54878 1.30244 8.54878 2.92683ZM8.54878 19.0244V29.2683H3.5V17C3.22112 14.769 1.79186 13.4615 0.5 12.8743V10.2439C0.5 8.63415 1.81707 7.31707 3.42683 7.31707H7.81707C9.42683 7.31707 10.7439 8.63415 10.7439 10.2439V19.0244H8.54878Z" fill="#358271"></path></g></svg> 