<?xml version="1.0" encoding="UTF-8"?> <svg xmlns="http://www.w3.org/2000/svg" width="82" height="82" viewBox="0 0 83 82" fill="none"><g><path fill-rule="evenodd" clip-rule="evenodd" d="M41 82C63.6437 82 82 63.6437 82 41C82 18.3563 63.6437 0 41 0C18.3563 0 0 18.3563 0 41C0 63.6437 18.3563 82 41 82Z" fill="#F2F1FE"></path></g><g transform="translate(27, 24)"><path d="M10.1667 14.5H6.94444V17.7222H10.1667V14.5ZM16.6111 14.5H13.3889V17.7222H16.6111V14.5ZM23.0556 14.5H19.8333V17.7222H23.0556V14.5ZM26.2778 3.22222H24.6667V0H21.4444V3.22222H8.55556V0H5.33333V3.22222H3.72222C1.93389 3.22222 0.516111 4.67222 0.516111 6.44444L0.5 29C0.5 30.7722 1.93389 32.2222 3.72222 32.2222H26.2778C28.05 32.2222 29.5 30.7722 29.5 29V6.44444C29.5 4.67222 28.05 3.22222 26.2778 3.22222ZM26.2778 29H3.72222V11.2778H26.2778V29Z" fill="#7461E7"></path></g></svg> 