<?xml version="1.0" encoding="UTF-8"?> <svg xmlns="http://www.w3.org/2000/svg" width="82" height="82" viewBox="0 0 83 82" fill="none"><g><path fill-rule="evenodd" clip-rule="evenodd" d="M41 82C63.6437 82 82 63.6437 82 41C82 18.3563 63.6437 0 41 0C18.3563 0 0 18.3563 0 41C0 63.6437 18.3563 82 41 82Z" fill="#FCEEF4"></path></g><g transform="translate(27, 24)"><path d="M20.7773 12.6318L17.5 11.1364L20.7773 9.64091L22.2727 6.36364L23.7682 9.64091L27.0455 11.1364L23.7682 12.6318L22.2727 15.9091L20.7773 12.6318ZM4.77273 19.0909L6.26818 15.8136L9.54545 14.3182L6.26818 12.8227L4.77273 9.54545L3.27727 12.8227L0 14.3182L3.27727 15.8136L4.77273 19.0909ZM11.9318 11.1364L13.6659 7.30227L17.5 5.56818L13.6659 3.83409L11.9318 0L10.1977 3.83409L6.36364 5.56818L10.1977 7.30227L11.9318 11.1364ZM5.56818 29.4318L15.1136 19.8705L21.4773 26.2341L35 11.025L32.7568 8.78182L21.4773 21.4614L15.1136 15.0977L3.18182 27.0455L5.56818 29.4318Z" fill="#C74289"></path></g></svg> 