<?xml version="1.0" encoding="UTF-8"?> <svg xmlns="http://www.w3.org/2000/svg" width="83" height="82" viewBox="0 0 83 82" fill="none"><g><path fill-rule="evenodd" clip-rule="evenodd" d="M41.5 82C64.1437 82 82.5 63.6437 82.5 41C82.5 18.3563 64.1437 0 41.5 0C18.8563 0 0.5 18.3563 0.5 41C0.5 63.6437 18.8563 82 41.5 82Z" fill="#EEF1FE"></path></g><g transform="translate(27, 24)"><path d="M11.0003 18.6667H6.83366V13.6667H11.0003V9.50001H16.0003V13.6667H20.167V18.6667H16.0003V22.8333H11.0003V18.6667ZM13.5003 0.333344L0.166992 5.33334V15.4833C0.166992 23.9 5.85032 31.75 13.5003 33.6667C21.1503 31.75 26.8337 23.9 26.8337 15.4833V5.33334L13.5003 0.333344Z" fill="#3F73D3"></path></g></svg> 